<?xml version="1.0" encoding="utf-8"?><svg xmlns="http://www.w3.org/2000/svg" xmlns:xlink="http://www.w3.org/1999/xlink" width="1366" height="625" preserveAspectRatio="xMidYMid" viewBox="0 0 1366 625" style="z-index:1;margin-right:-2px;display:block;background-repeat-y:initial;background-repeat-x:initial;background-color:rgb(245, 192, 36);animation-play-state:paused" ><g transform="translate(683,312.5) scale(1,1) translate(-683,-312.5)" style="transform:matrix(1, 0, 0, 1, 0, 0);animation-play-state:paused" ><defs style="animation-play-state:paused" ><path id="path-jiy5w1rxfqj-1" d="M-35 -35L35 -35L35 35L-35 35Z" fill="none" stroke="inherit" stroke-width="1.1764705882352942" transform="scale(0.68)" style="transform:matrix(0.68, 0, 0, 0.68, 0, 0);animation-play-state:paused" ></path>

  
<path id="path-jiy5w1rxfqj-2" d="M0 -37A37 37 0 0 1 0 37A37 37 0 0 1 0 -37" fill="none" stroke="inherit" stroke-width="1.1764705882352942" transform="scale(0.68)" style="transform:matrix(0.68, 0, 0, 0.68, 0, 0);animation-play-state:paused" ></path>

  
<path id="path-jiy5w1rxfqj-3" d="M0 -34.641L40 34.641L-40 34.641Z" fill="none" stroke="inherit" stroke-width="1.1764705882352942" transform="scale(0.68)" style="transform:matrix(0.68, 0, 0, 0.68, 0, 0);animation-play-state:paused" ></path></defs>
<path id="path0" d="M 99.8190371065476 127.3371039413712
c 0 55.92125309130498 -13.682859798936324 16.06248759005569 -29.745347388992013 16.06248759005569
S 40.328342328563565 183.25835703267617 40.328342328563565 127.3371039413712
s 13.682859798936324 -16.06248759005569 29.745347388992013 -16.06248759005569
S 99.8190371065476 71.41585085006622 99.8190371065476 127.3371039413712
z" fill="none" stroke="none" style="animation-play-state:paused" ></path>


<use xlink:href="#path-jiy5w1rxfqj-1" x="0" y="0" stroke="#a976c3" transform="translate(87.54289245605469 153.90016174316406)" style="animation-play-state:paused" ></use>
<path id="path1" d="M 140.23250169313843 394.24923291153857
c 0 43.13741658690381 -10.554899803178591 12.390534551557478 -22.94543435473607 12.390534551557478
S 94.3416329836663 437.38664949844235 94.3416329836663 394.24923291153857
s 10.554899803178591 -12.390534551557478 22.94543435473607 -12.390534551557478
S 140.23250169313843 351.1118163246348 140.23250169313843 394.24923291153857
z" fill="none" stroke="none" style="animation-play-state:paused" ></path>


<use xlink:href="#path-jiy5w1rxfqj-3" x="0" y="0" stroke="#a976c3" transform="translate(140.21771240234375 396.9161376953125)" style="animation-play-state:paused" ></use>
<path id="path2" d="M 188.72452021160453 109.04548998204942
c 0 52.89080799190783 -12.941367912913616 15.192040593420334 -28.13340850633395 15.192040593420334
S 132.45770319893663 161.93629797395724 132.45770319893663 109.04548998204942
s 12.941367912913616 -15.192040593420334 28.13340850633395 -15.192040593420334
S 188.72452021160453 56.15468199014159 188.72452021160453 109.04548998204942
z" fill="none" stroke="none" style="animation-play-state:paused" ></path>


<use xlink:href="#path-jiy5w1rxfqj-3" x="0" y="0" stroke="#5f2a62" transform="translate(149.05343627929688 129.90310668945312)" style="animation-play-state:paused" ></use>
<path id="path3" d="M 209.27862942003264 370.93442548355085
c 0 25.126671360145057 -6.1480153328014495 7.217235390679963 -13.365250723481413 7.217235390679963
S 182.54812797306982 396.0610968436959 182.54812797306982 370.93442548355085
s 6.1480153328014495 -7.217235390679963 13.365250723481413 -7.217235390679963
S 209.27862942003264 345.8077541234058 209.27862942003264 370.93442548355085
z" fill="none" stroke="none" style="animation-play-state:paused" ></path>


<use xlink:href="#path-jiy5w1rxfqj-3" x="0" y="0" stroke="#5f2a62" transform="translate(200.4864959716797 380.11785888671875)" style="animation-play-state:paused" ></use>
<path id="path4" d="M 263.31528930339454 497.78970750810174
c 0 52.31025478261678 -12.799317659576445 15.025285948198437 -27.824603607774883 15.025285948198437
S 207.66608208784479 550.0999622907185 207.66608208784479 497.78970750810174
s 12.799317659576445 -15.025285948198437 27.824603607774883 -15.025285948198437
S 263.31528930339454 445.479452725485 263.31528930339454 497.78970750810174
z" fill="none" stroke="none" style="animation-play-state:paused" ></path>


<use xlink:href="#path-jiy5w1rxfqj-3" x="0" y="0" stroke="#5f2a62" transform="translate(243.10757446289062 515.553955078125)" style="animation-play-state:paused" ></use>
<path id="path5" d="M 291.5166505727074 483.46448819737
c 0 52.99500372226193 -12.966862612893875 15.221969154266725 -28.1888317671606 15.221969154266725
S 235.13898703838623 536.4594919196319 235.13898703838623 483.46448819737
s 12.966862612893875 -15.221969154266725 28.1888317671606 -15.221969154266725
S 291.5166505727074 430.46948447510806 291.5166505727074 483.46448819737
z" fill="none" stroke="none" style="animation-play-state:paused" ></path>


<use xlink:href="#path-jiy5w1rxfqj-1" x="0" y="0" stroke="#a0de59" transform="translate(290.5871887207031 502.2958984375)" style="animation-play-state:paused" ></use>
<path id="path6" d="M 357.0025244933089 456.14673629705504
c 0 56.09348346504375 -13.725001273361766 16.111958016555118 -29.836959289916884 16.111958016555118
S 297.32860591347514 512.2402197620988 297.32860591347514 456.14673629705504
s 13.725001273361766 -16.111958016555118 29.836959289916884 -16.111958016555118
S 357.0025244933089 400.0532528320113 357.0025244933089 456.14673629705504
z" fill="none" stroke="none" style="animation-play-state:paused" ></path>


<use xlink:href="#path-jiy5w1rxfqj-1" x="0" y="0" stroke="#5f2a62" transform="translate(336.2971496582031 475.8551330566406)" style="animation-play-state:paused" ></use>
<path id="path7" d="M 383.09755007927316 157.44240625224168
c 0 55.59519927435938 -13.603080673513464 15.968833834124505 -29.57191450763797 15.968833834124505
S 323.9537210639972 213.03760552660106 323.9537210639972 157.44240625224168
s 13.603080673513464 -15.968833834124505 29.57191450763797 -15.968833834124505
S 383.09755007927316 101.84720697788231 383.09755007927316 157.44240625224168
z" fill="none" stroke="none" style="animation-play-state:paused" ></path>


<use xlink:href="#path-jiy5w1rxfqj-1" x="0" y="0" stroke="#5f2a62" transform="translate(381.4410095214844 180.95445251464844)" style="animation-play-state:paused" ></use>
<path id="path8" d="M 413.49257972256993 151.59617346027292
c 0 36.83612383858582 -9.013094130717805 10.580588762146991 -19.5936828928648 10.580588762146991
S 374.3052139368403 188.43229729885874 374.3052139368403 151.59617346027292
s 9.013094130717805 -10.580588762146991 19.5936828928648 -10.580588762146991
S 413.49257972256993 114.7600496216871 413.49257972256993 151.59617346027292
z" fill="none" stroke="none" style="animation-play-state:paused" ></path>


<use xlink:href="#path-jiy5w1rxfqj-3" x="0" y="0" stroke="#a0de59" transform="translate(411.4621276855469 169.79708862304688)" style="animation-play-state:paused" ></use>
<path id="path9" d="M 471.9244274066992 320.4263839586592
c 0 57.91330062695443 -14.170275685318636 16.6346714566784 -30.804947141997037 16.6346714566784
S 410.3145331227051 378.3396845856136 410.3145331227051 320.4263839586592
s 14.170275685318636 -16.6346714566784 30.804947141997037 -16.6346714566784
S 471.9244274066992 262.51308333170476 471.9244274066992 320.4263839586592
z" fill="none" stroke="none" style="animation-play-state:paused" ></path>


<use xlink:href="#path-jiy5w1rxfqj-1" x="0" y="0" stroke="#a0de59" transform="translate(447.97552490234375 339.1289978027344)" style="animation-play-state:paused" ></use>
<path id="path10" d="M 494.22349095579125 244.6554023647721
c 0 37.08820013712269 -9.074772373976828 10.652993656407583 -19.72776603038441 10.652993656407583
S 454.7679588950224 281.74360250189477 454.7679588950224 244.6554023647721
s 9.074772373976828 -10.652993656407583 19.72776603038441 -10.652993656407583
S 494.22349095579125 207.5672022276494 494.22349095579125 244.6554023647721
z" fill="none" stroke="none" style="animation-play-state:paused" ></path>


<use xlink:href="#path-jiy5w1rxfqj-2" x="0" y="0" stroke="#a976c3" transform="translate(492.78228759765625 261.5546569824219)" style="animation-play-state:paused" ></use>
<path id="path11" d="M 533.139728469357 76.07312026885835
c 0 39.932088557437005 -9.770617412989905 11.469855223944673 -21.240472636934577 11.469855223944673
S 490.65878319548784 116.00520882629536 490.65878319548784 76.07312026885835
s 9.770617412989905 -11.469855223944673 21.240472636934577 -11.469855223944673
S 533.139728469357 36.14103171142134 533.139728469357 76.07312026885835
z" fill="none" stroke="none" style="animation-play-state:paused" ></path>


<use xlink:href="#path-jiy5w1rxfqj-2" x="0" y="0" stroke="#5f2a62" transform="translate(510.7981872558594 87.62812805175781)" style="animation-play-state:paused" ></use>
<path id="path12" d="M 585.33429249393 238.92470377850816
c 0 46.932247461987245 -11.483422251337304 13.480539164613358 -24.963961415950664 13.480539164613358
S 535.4063696620287 285.8569512404954 535.4063696620287 238.92470377850816
s 11.483422251337304 -13.480539164613358 24.963961415950664 -13.480539164613358
S 585.33429249393 191.99245631652093 585.33429249393 238.92470377850816
z" fill="none" stroke="none" style="animation-play-state:paused" ></path>


<use xlink:href="#path-jiy5w1rxfqj-3" x="0" y="0" stroke="#a976c3" transform="translate(573.6910400390625 260.0836181640625)" style="animation-play-state:paused" ></use>
<path id="path13" d="M 628.3370205852328 401.69919198707925
c 0 53.916079038986005 -13.192232105283807 15.486533340985343 -28.67876544626915 15.486533340985343
S 570.9794896926945 455.6152710260653 570.9794896926945 401.69919198707925
s 13.192232105283807 -15.486533340985343 28.67876544626915 -15.486533340985343
S 628.3370205852328 347.7831129480932 628.3370205852328 401.69919198707925
z" fill="none" stroke="none" style="animation-play-state:paused" ></path>


<use xlink:href="#path-jiy5w1rxfqj-3" x="0" y="0" stroke="#a976c3" transform="translate(617.9730224609375 428.4647521972656)" style="animation-play-state:paused" ></use>
<path id="path14" d="M 634.1876277848723 307.8794976945009
c 0 48.14889846504655 -11.781113454213516 13.830002750598476 -25.611116204811992 13.830002750598476
S 582.9653953752484 356.02839615954747 582.9653953752484 307.8794976945009
s 11.781113454213516 -13.830002750598476 25.611116204811992 -13.830002750598476
S 634.1876277848723 259.73059922945436 634.1876277848723 307.8794976945009
z" fill="none" stroke="none" style="animation-play-state:paused" ></path>


<use xlink:href="#path-jiy5w1rxfqj-3" x="0" y="0" stroke="#a976c3" transform="translate(632.6099243164062 328.8161315917969)" style="animation-play-state:paused" ></use>
<path id="path15" d="M 688.5625116764605 466.84119913498967
c 0 63.48928532468641 -15.534612366678589 18.236284082622692 -33.77089644930128 18.236284082622692
S 621.020718777858 530.3304844596761 621.020718777858 466.84119913498967
s 15.534612366678589 -18.236284082622692 33.77089644930128 -18.236284082622692
S 688.5625116764605 403.35191381030324 688.5625116764605 466.84119913498967
z" fill="none" stroke="none" style="animation-play-state:paused" ></path>


<use xlink:href="#path-jiy5w1rxfqj-2" x="0" y="0" stroke="#5f2a62" transform="translate(672.412841796875 495.1189880371094)" style="animation-play-state:paused" ></use>
<path id="path16" d="M 710.5554877115705 190.36520960769187
c 0 31.11228231130265 -7.612579714467668 8.936506621331613 -16.54908633579928 8.936506621331613
S 677.457315039972 221.47749191899453 677.457315039972 190.36520960769187
s 7.612579714467668 -8.936506621331613 16.54908633579928 -8.936506621331613
S 710.5554877115705 159.2529272963892 710.5554877115705 190.36520960769187
z" fill="none" stroke="none" style="animation-play-state:paused" ></path>


<use xlink:href="#path-jiy5w1rxfqj-2" x="0" y="0" stroke="#5f2a62" transform="translate(697.8156127929688 200.4846649169922)" style="animation-play-state:paused" ></use>
<path id="path17" d="M 775.1598601373554 79.2046890560635
c 0 47.264524458305395 -11.56472406958536 13.575980429513251 -25.14070449909861 13.575980429513251
S 724.8784511391581 126.4692135143689 724.8784511391581 79.2046890560635
s 11.56472406958536 -13.575980429513251 25.14070449909861 -13.575980429513251
S 775.1598601373554 31.940164597758105 775.1598601373554 79.2046890560635
z" fill="none" stroke="none" style="animation-play-state:paused" ></path>


<use xlink:href="#path-jiy5w1rxfqj-3" x="0" y="0" stroke="#5f2a62" transform="translate(750.4152221679688 92.7901611328125)" style="animation-play-state:paused" ></use>
<path id="path18" d="M 800.5716728680898 91.75271813680392
c 0 33.955816053766156 -8.308337970602356 9.75326631331581 -18.061604283918168 9.75326631331581
S 764.4484643002534 125.70853419057008 764.4484643002534 91.75271813680392
s 8.308337970602356 -9.75326631331581 18.061604283918168 -9.75326631331581
S 800.5716728680898 57.796902083037764 800.5716728680898 91.75271813680392
z" fill="none" stroke="none" style="animation-play-state:paused" ></path>


<use xlink:href="#path-jiy5w1rxfqj-3" x="0" y="0" stroke="#a0de59" transform="translate(800.5222778320312 95.95883178710938)" style="animation-play-state:paused" ></use>
<path id="path19" d="M 870.1904348845891 180.17952411075603
c 0 63.94374585049224 -15.645810154907675 18.36682061663075 -34.012630771538426 18.36682061663075
S 802.1651733415123 244.12326996124827 802.1651733415123 180.17952411075603
s 15.645810154907675 -18.36682061663075 34.012630771538426 -18.36682061663075
S 870.1904348845891 116.2357782602638 870.1904348845891 180.17952411075603
z" fill="none" stroke="none" style="animation-play-state:paused" ></path>


<use xlink:href="#path-jiy5w1rxfqj-1" x="0" y="0" stroke="#a976c3" transform="translate(868.5103149414062 206.1988067626953)" style="animation-play-state:paused" ></use>
<path id="path20" d="M 895.2648887500882 542.2109404730512
c 0 42.89563521634225 -10.495740531658209 12.32108671107703 -22.816827242735236 12.32108671107703
S 849.6312342646177 585.1065756893935 849.6312342646177 542.2109404730512
s 10.495740531658209 -12.32108671107703 22.816827242735236 -12.32108671107703
S 895.2648887500882 499.31530525670894 895.2648887500882 542.2109404730512
z" fill="none" stroke="none" style="animation-play-state:paused" ></path>


<use xlink:href="#path-jiy5w1rxfqj-2" x="0" y="0" stroke="#a976c3" transform="translate(868.2640991210938 555.5961303710938)" style="animation-play-state:paused" ></use>
<path id="path21" d="M 897.9134264332516 379.00703955763566
c 0 21.17709982360788 -5.181630807904055 6.08278399188737 -11.264414799791425 6.08278399188737
S 875.3845968336688 400.18413938124354 875.3845968336688 379.00703955763566
s 5.181630807904055 -6.08278399188737 11.264414799791425 -6.08278399188737
S 897.9134264332516 357.8299397340278 897.9134264332516 379.00703955763566
z" fill="none" stroke="none" style="animation-play-state:paused" ></path>


<use xlink:href="#path-jiy5w1rxfqj-1" x="0" y="0" stroke="#a976c3" transform="translate(887.65966796875 385.2224426269531)" style="animation-play-state:paused" ></use>
<path id="path22" d="M 948.3964235195193 523.7933854335278
c 0 37.044556686452246 -9.06409365732342 10.640457771640538 -19.70455142896396 10.640457771640538
S 908.9873206615913 560.83794211998 908.9873206615913 523.7933854335278
s 9.06409365732342 -10.640457771640538 19.70455142896396 -10.640457771640538
S 948.3964235195193 486.7488287470755 948.3964235195193 523.7933854335278
z" fill="none" stroke="none" style="animation-play-state:paused" ></path>


<use xlink:href="#path-jiy5w1rxfqj-1" x="0" y="0" stroke="#a0de59" transform="translate(911.980224609375 543.2135009765625)" style="animation-play-state:paused" ></use>
<path id="path23" d="M 1015.098581689591 479.67185678860875
c 0 59.90744486074687 -14.658204593587 17.20745756638474 -31.86566215997174 17.20745756638474
S 951.3672573696475 539.5793016493557 951.3672573696475 479.67185678860875
s 14.658204593587 -17.20745756638474 31.86566215997174 -17.20745756638474
S 1015.098581689591 419.7644119278619 1015.098581689591 479.67185678860875
z" fill="none" stroke="none" style="animation-play-state:paused" ></path>


<use xlink:href="#path-jiy5w1rxfqj-2" x="0" y="0" stroke="#a0de59" transform="translate(989.9589233398438 498.8164978027344)" style="animation-play-state:paused" ></use>
<path id="path24" d="M 1035.3149608344256 317.37557873341984
c 0 35.38524159435819 -8.65809102840679 10.163845989868841 -18.821937018275634 10.163845989868841
S 997.6710867978743 352.76082032777805 997.6710867978743 317.37557873341984
s 8.65809102840679 -10.163845989868841 18.821937018275634 -10.163845989868841
S 1035.3149608344256 281.99033713906164 1035.3149608344256 317.37557873341984
z" fill="none" stroke="none" style="animation-play-state:paused" ></path>


<use xlink:href="#path-jiy5w1rxfqj-2" x="0" y="0" stroke="#a0de59" transform="translate(1034.23486328125 332.44769287109375)" style="animation-play-state:paused" ></use>
<path id="path25" d="M 1089.2123180712733 69.88147656226859
c 0 57.05738946844013 -13.960850614618328 16.388824634551952 -30.349675249170282 16.388824634551952
S 1028.5129675729327 126.93886603070871 1028.5129675729327 69.88147656226859
s 13.960850614618328 -16.388824634551952 30.349675249170282 -16.388824634551952
S 1089.2123180712733 12.82408709382846 1089.2123180712733 69.88147656226859
z" fill="none" stroke="none" style="animation-play-state:paused" ></path>


<use xlink:href="#path-jiy5w1rxfqj-3" x="0" y="0" stroke="#a976c3" transform="translate(1070.319580078125 91.57324981689453)" style="animation-play-state:paused" ></use>
<path id="path26" d="M 1116.2034666275638 560.5713173377897
c 0 48.26924331178495 -11.810559533734613 13.86456988742759 -25.675129421162204 13.86456988742759
S 1064.8532077852394 608.8405606495746 1064.8532077852394 560.5713173377897
s 11.810559533734613 -13.86456988742759 25.675129421162204 -13.86456988742759
S 1116.2034666275638 512.3020740260047 1116.2034666275638 560.5713173377897
z" fill="none" stroke="none" style="animation-play-state:paused" ></path>


<use xlink:href="#path-jiy5w1rxfqj-3" x="0" y="0" stroke="#a0de59" transform="translate(1073.7159423828125 584.8323364257812)" style="animation-play-state:paused" ></use>
<path id="path27" d="M 1151.2570663042438 260.68940180101714
c 0 24.109442676098833 -5.89911895266248 6.9250526835603035 -12.824171636222783 6.9250526835603035
S 1125.6087230317985 284.79884447711595 1125.6087230317985 260.68940180101714
s 5.89911895266248 -6.9250526835603035 12.824171636222783 -6.9250526835603035
S 1151.2570663042438 236.5799591249183 1151.2570663042438 260.68940180101714
z" fill="none" stroke="none" style="animation-play-state:paused" ></path>


<use xlink:href="#path-jiy5w1rxfqj-3" x="0" y="0" stroke="#5f2a62" transform="translate(1147.0982666015625 272.9877014160156)" style="animation-play-state:paused" ></use>
<path id="path28" d="M 1194.9610903090788 296.0846304923144
c 0 32.95141064506324 -8.062579200387813 9.464766887411782 -17.527346087799597 9.464766887411782
S 1159.9063981334798 329.0360411373776 1159.9063981334798 296.0846304923144
s 8.062579200387813 -9.464766887411782 17.527346087799597 -9.464766887411782
S 1194.9610903090788 263.13321984725115 1194.9610903090788 296.0846304923144
z" fill="none" stroke="none" style="animation-play-state:paused" ></path>


<use xlink:href="#path-jiy5w1rxfqj-3" x="0" y="0" stroke="#5f2a62" transform="translate(1194.43896484375 307.37109375)" style="animation-play-state:paused" ></use>
<path id="path29" d="M 1235.2927480799926 136.2783236538881
c 0 53.37963120082504 -13.060973591691232 15.332447259811449 -28.39342085150268 15.332447259811449
S 1178.5059063769872 189.65795485471313 1178.5059063769872 136.2783236538881
s 13.060973591691232 -15.332447259811449 28.39342085150268 -15.332447259811449
S 1235.2927480799926 82.89869245306306 1235.2927480799926 136.2783236538881
z" fill="none" stroke="none" style="animation-play-state:paused" ></path>


<use xlink:href="#path-jiy5w1rxfqj-1" x="0" y="0" stroke="#a976c3" transform="translate(1214.51220703125 154.3014373779297)" style="animation-play-state:paused" ></use>
<path id="path30" d="M 1272.477840271775 227.91030376657866
c 0 24.5378470913649 -6.003941309589283 7.048105015604812 -13.052046325194095 7.048105015604812
S 1246.3737476213867 252.44815085794357 1246.3737476213867 227.91030376657866
s 6.003941309589283 -7.048105015604812 13.052046325194095 -7.048105015604812
S 1272.477840271775 203.37245667521375 1272.477840271775 227.91030376657866
z" fill="none" stroke="none" style="animation-play-state:paused" ></path>


<use xlink:href="#path-jiy5w1rxfqj-2" x="0" y="0" stroke="#a0de59" transform="translate(1272.44140625 230.9773406982422)" style="animation-play-state:paused" ></use>
<path id="path31" d="M 1321.5325410985754 294.23178029994415
c 0 63.53103934219641 -15.544828775218269 18.248277257864927 -33.7931060330832 18.248277257864927
S 1253.946329032409 357.7628196421406 1253.946329032409 294.23178029994415
s 15.544828775218269 -18.248277257864927 33.7931060330832 -18.248277257864927
S 1321.5325410985754 230.70074095774774 1321.5325410985754 294.23178029994415
z" fill="none" stroke="none" style="animation-play-state:paused" ></path>


<use xlink:href="#path-jiy5w1rxfqj-1" x="0" y="0" stroke="#a976c3" transform="translate(1255.241455078125 318.0195617675781)" style="animation-play-state:paused" ></use></g></svg>